<?xml version="1.0" encoding="UTF-8"?>
<svg id="Layer_1" xmlns="http://www.w3.org/2000/svg" version="1.1" viewBox="0 0 512 512">
  <!-- Generator: Adobe Illustrator 30.1.0, SVG Export Plug-In . SVG Version: 2.1.1 Build 136)  -->
  <path d="M272,0c1.01.58,2.92.73,4.59.86,124.85,9.76,224.79,109.7,234.55,234.55.13,1.67.28,3.59.86,4.59v32c-.58,1.01-.73,2.92-.86,4.59-9.76,124.85-109.7,224.79-234.55,234.55-1.67.13-3.59.28-4.59.86h-32c-1.01-.58-2.92-.73-4.59-.86C110.56,501.38,10.62,401.44.86,276.59c-.13-1.67-.28-3.59-.86-4.59v-32C9.71,110.2,110.22,9.73,240,0h32ZM246,27.47C119.01,33.03,21.5,141.2,27.47,266.74c5.98,125.73,112.8,223.31,238.53,217.81,125.98-5.51,224.06-112.48,218.57-238.61-5.45-125.18-111.82-224.03-238.56-218.47Z"/>
  <path d="M311.68,321.74c-18.24,32.09-47.9,69.33-88.5,58.11-24.31-6.71-24.1-32.15-17.5-52.3l22.17-67.7c1.59-4.85,2.52-9.82,2.87-14.76s-3.86-9.74-8.85-9.82l-21.45-.33,5.17-19.37,92.11-2.83-39.63,131.26c-.41,1.36.46,4.34,1.02,5.41.65,1.25,4.36,1.95,5.63,1.21,13.41-7.84,23.76-26.2,32.59-39.56l14.39,10.68Z"/>
  <path d="M275.52,191.78c-18.71-.55-31.21-16.94-29.36-34.21,1.84-17.21,18.27-30.32,36.03-26.77,15.81,3.16,25.73,17.8,24.25,33.07-1.49,15.35-14.1,28.39-30.92,27.9Z"/>
</svg>