<?xml version="1.0" encoding="UTF-8"?>
<svg xmlns="http://www.w3.org/2000/svg" version="1.1" viewBox="0 0 100 100">
  <!-- Generator: Adobe Illustrator 29.8.4, SVG Export Plug-In . SVG Version: 2.1.1 Build 6)  -->
  <defs>
    <style>
      .st0 {
        font-family: MicrosoftSansSerif, 'Microsoft Sans Serif';
        font-size: 71.93px;
      }

      .st0, .st1 {
        fill: #fff;
      }

      .st0, .st2, .st3 {
        stroke: #fff;
        stroke-miterlimit: 10;
        stroke-width: 2px;
      }

      .st4 {
        font-family: ToshA-Bold, 'Tosh A';
        font-size: 50px;
        font-weight: 700;
      }

      .st2 {
        font-family: Legitima, Legitima;
        font-size: 75.28px;
      }

      .st5, .st3 {
        display: none;
      }
    </style>
  </defs>
  <g id="Layer_1" class="st5">
    <text class="st2" transform="translate(64.36 76.27) rotate(-180) scale(1 -1)"><tspan x="0" y="0">K</tspan></text>
    <text class="st2" transform="translate(38.3 76.27)"><tspan x="0" y="0">D</tspan></text>
  </g>
  <g id="Layer_5">
    <rect class="st3" width="100" height="100"/>
    <text class="st0" transform="translate(45.71 75.29)"><tspan x="0" y="0">D</tspan></text>
    <text class="st0" transform="translate(.83 75.29)"><tspan x="0" y="0">K</tspan></text>
  </g>
  <g id="Layer_2" class="st5">
    <text class="st4" transform="translate(94.05 57.49) rotate(-180) scale(1 -1)"><tspan x="0" y="0">D</tspan></text>
    <polygon points="47.06 36.99 47.06 20.42 63.63 20.42 47.06 36.99"/>
    <polygon points="63.63 57.49 47.06 57.49 47.06 40.92 63.63 57.49"/>
  </g>
  <g id="Layer_3" class="st5">
    <path d="M30.71,89.21H14.54C-1.48,62.94,5.51,28.76,30.56,10.89l.15-.1h16.16l-16.16,78.43Z"/>
    <path class="st1" d="M20.52,79.21c-9.34-20.07-3.83-44.39,13.54-58.43h.54l-12.04,58.43h-2.04Z"/>
    <polygon points="50.9 89.21 50.9 89.21 67.06 10.79 96.56 10.79 50.9 89.21"/>
    <polygon points="79.89 89.21 50.9 89.21 67.06 10.79 67.06 10.79 79.89 89.21"/>
    <polygon points="47.5 89.21 34.9 89.21 51.07 10.79 63.66 10.79 47.5 89.21"/>
  </g>
</svg>